<?xml version="1.0" encoding="UTF-8"?>
<svg width="182px" height="44px" viewBox="0 0 182 44" version="1.1" xmlns="http://www.w3.org/2000/svg" xmlns:xlink="http://www.w3.org/1999/xlink">
    <!-- Generator: Sketch 61.2 (89653) - https://sketch.com -->
    <title>Logo</title>
    <desc>Created with Sketch.</desc>
    <g id="Master" stroke="none" stroke-width="1" fill="none" fill-rule="evenodd">
        <g id="XL_Home" transform="translate(-40.000000, -25.000000)">
            <g id="Nav">
                <g id="Logo" transform="translate(41.000000, 25.000000)">
                    <g id="noun_Lightning_1679495" transform="translate(47.000000, 3.000000)"></g>
                    <g id="Bolt" transform="translate(0.000000, 3.000000)" fill="#FFD900" fill-rule="nonzero" stroke="#FFD900" stroke-width="2">
                        <path d="M30.6821278,0.310827843 C30.5561522,0.0952731628 30.311663,-0.0305041042 30.0733189,0.00638463487 L10.9026411,2.29615311 C10.686244,2.32193079 10.4988169,2.46015245 10.4088343,2.66059608 L0.0560099081,25.7631689 C-0.0383620603,25.9725014 -0.012025697,26.2178337 0.124045513,26.4013886 C0.259677784,26.5871656 0.488365205,26.6787208 0.708712778,26.6489431 L11.8419714,25.0836161 L6.04709361,39.1266702 C5.93165255,39.4062246 6.02953604,39.72889 6.27929255,39.8964449 C6.38376012,39.9653335 6.50315164,40 6.62166527,40 C6.7858286,40 6.94823618,39.9346669 7.06938345,39.8080008 L29.3675043,16.4445401 C29.5492253,16.2534298 29.594436,15.9680976 29.4798728,15.7303208 C29.3657486,15.4912106 29.1129195,15.3521001 28.8552621,15.3792111 L19.9232845,16.3223184 L30.6544746,0.997047278 C30.796691,0.79349255 30.8076645,0.525049195 30.6821278,0.310827843 Z M18.0377936,16.7790153 C17.8947978,16.9809167 17.8832872,17.2486362 18.0076892,17.4616555 C18.1329766,17.6773432 18.3724835,17.7991956 18.6150895,17.7711784 L27.2891373,16.8617326 L8.31407667,36.5853659 L13.2981235,24.6024726 C13.3853377,24.3943452 13.3539052,24.1537534 13.2157792,23.9740878 C13.096247,23.8188817 12.9116363,23.7290489 12.7181714,23.7290489 C12.6893951,23.7290489 12.6606189,23.7317172 12.6318426,23.7352749 L1.44230769,25.2966755 L11.2665201,3.54735739 L28.8461538,1.46341463 L18.0377936,16.7790153 Z" id="Shape"></path>
                    </g>
                    <g id="Strike" transform="translate(47.000000, 0.000000)" fill="#FFFFFF">
                        <path d="M11.2201975,39.3184727 C13.7206082,39.3184727 15.8807731,38.9767802 17.7006923,38.2933953 C19.5206115,37.6100103 20.9053327,36.6485036 21.8548557,35.4088751 C22.8043788,34.1692466 23.2791403,32.7547988 23.2791403,31.1655315 C23.2791403,29.2901961 22.7885534,27.8280702 21.8073796,26.7791538 C20.8262057,25.7302374 19.6709527,25.0071207 18.3416204,24.6098039 C17.0122881,24.2124871 15.3031466,23.8390093 13.2141959,23.4893705 C11.3468005,23.2033024 9.9858175,22.9013416 9.13124674,22.5834881 C8.27667599,22.2656347 7.84939061,21.7093911 7.84939061,20.9147575 C7.84939061,20.2154799 8.24502522,19.6433437 9.03629444,19.1983488 C9.82756365,18.753354 11.0144675,18.5308566 12.5970059,18.5308566 C15.2556705,18.5308566 17.708605,19.1665635 19.9558096,20.4379773 L19.9558096,20.4379773 L22.4245696,15.1457172 C21.2534911,14.4464396 19.7738177,13.8981424 17.9855493,13.5008256 C16.1972808,13.1035088 14.4010997,12.9048504 12.5970059,12.9048504 C10.1598967,12.9048504 8.04720792,13.2544892 6.25893949,13.9537668 C4.47067107,14.6530444 3.10968802,15.6304438 2.17599034,16.8859649 C1.24229267,18.1414861 0.775443831,19.579773 0.775443831,21.2008256 C0.775443831,23.1397317 1.27394344,24.6336429 2.27094265,25.6825593 C3.26794186,26.7314757 4.44693299,27.4625387 5.80791604,27.8757482 C7.16889909,28.2889577 8.89386598,28.6544892 10.9828167,28.9723426 C12.7552597,29.19484 14.0687666,29.4650155 14.9233374,29.7828689 C15.7779081,30.1007224 16.2051935,30.6251806 16.2051935,31.3562436 C16.2051935,32.9137255 14.6384805,33.6924665 11.5050544,33.6924665 C9.95416673,33.6924665 8.3716283,33.4620227 6.7574391,33.0011352 C5.1432499,32.5402477 3.76644146,31.9442724 2.62701379,31.2132095 L2.62701379,31.2132095 L0.158253843,36.5531476 C1.36098305,37.3477812 2.97517225,38.0073271 5.00082144,38.5317853 C7.02647063,39.0562436 9.09959597,39.3184727 11.2201975,39.3184727 Z" id="Path" fill-rule="nonzero"></path>
                        <path d="M38.9831753,39.3184727 C40.1542537,39.3184727 41.2699433,39.1833849 42.3302441,38.9132095 C43.3905448,38.6430341 44.2846791,38.2377709 45.0126467,37.69742 L45.0126467,37.69742 L43.0186483,32.452838 C42.1957283,33.0885449 41.1987291,33.4063983 40.0276507,33.4063983 C39.0148261,33.4063983 38.2314696,33.1123839 37.6775811,32.524355 C37.1236927,31.9363261 36.8467484,31.1019608 36.8467484,30.021259 L36.8467484,30.021259 L36.8467484,19.579773 L43.2085529,19.579773 L43.2085529,13.8584107 L36.8467484,13.8584107 L36.8467484,7.6125903 L29.4404686,7.6125903 L29.4404686,13.8584107 L25.4999479,13.8584107 L25.4999479,19.579773 L29.4404686,19.579773 L29.4404686,30.1166151 C29.4404686,33.1362229 30.2713013,35.4247678 31.9329666,36.9822497 C33.594632,38.5397317 35.9447015,39.3184727 38.9831753,39.3184727 Z" id="Path" fill-rule="nonzero"></path>
                        <path d="M55.7158603,38.9370485 L55.7158603,26.8268318 C55.7158603,24.4429309 56.3172249,22.6550052 57.5199541,21.4630547 C58.7226833,20.2711042 60.3843487,19.675129 62.5049502,19.675129 C62.7898071,19.675129 63.3436955,19.7069143 64.1666155,19.770485 L64.1666155,19.770485 L64.1666155,12.9048504 C62.2042679,12.9048504 60.4713883,13.2227038 58.9679768,13.8584107 C57.4645653,14.4941176 56.2697487,15.4317853 55.3835272,16.6714138 L55.3835272,16.6714138 L55.3835272,13.2862745 L48.3095804,13.2862745 L48.3095804,38.9370485 L55.7158603,38.9370485 Z" id="Path" fill-rule="nonzero"></path>
                        <polygon id="Path" fill-rule="nonzero" points="75.1072098 38.9370485 75.1072098 13.2862745 67.70093 13.2862745 67.70093 38.9370485"></polygon>
                        <polygon id="Path" fill-rule="nonzero" points="87.8149934 38.9370485 87.8149934 32.40516 91.3757049 28.8769866 99.4466509 38.9370485 108.419644 38.9370485 96.8354625 24.1568627 107.470121 13.2862745 98.6395563 13.2862745 87.8149934 23.5847265 87.8149934 7.53312693 80.4087136 7.53312693 80.4087136 38.9370485"></polygon>
                        <path d="M120.177904,12.7141383 C122.678315,12.7141383 124.941345,13.2544892 126.966994,14.3351909 C128.992643,15.4158927 130.583095,16.9654283 131.738348,18.9837977 C132.893601,21.0021672 133.471227,23.3463364 133.471227,26.0163055 C133.471227,26.1057018 133.4295,26.6979521 133.346046,27.7930566 L133.328799,28.0187822 L114.006004,28.0187822 C114.354163,29.6080495 115.177083,30.8635707 116.474764,31.7853457 C117.772446,32.7071207 119.386635,33.1680083 121.317332,33.1680083 C122.646664,33.1680083 123.825655,32.9693498 124.854305,32.572033 C125.768661,32.2188625 126.626748,31.683613 127.428568,30.9662844 L127.726613,30.6887513 L131.667133,34.979773 C129.261675,37.745098 125.74844,39.1277606 121.127427,39.1277606 C118.247207,39.1277606 115.699321,38.5635707 113.483767,37.4351909 C111.268213,36.3068111 109.559071,34.7413829 108.356342,32.7389061 C107.780825,31.7807017 107.343003,30.7606349 107.042876,29.6787056 L113.911052,23.6800826 L106.719908,23.6788184 C106.972366,22.0431439 107.509931,20.525815 108.332604,19.1268318 C109.519508,17.1084623 111.149523,15.5350877 113.222648,14.4067079 C115.295773,13.2783282 117.614192,12.7141383 120.177904,12.7141383 Z M120.22538,18.3401445 C118.54789,18.3401445 117.139431,18.8169247 116.000003,19.770485 C114.931789,20.6644479 114.253029,21.8657105 113.963721,23.3742728 L113.911052,23.6800826 L126.492233,23.6800826 C126.239027,22.0590299 125.54271,20.7637771 124.403282,19.794324 C123.263854,18.824871 121.87122,18.3401445 120.22538,18.3401445 Z" id="Combined-Shape" fill-rule="nonzero"></path>
                        <polygon id="Rectangle" transform="translate(76.484018, 3.956346) rotate(-270.000000) translate(-76.484018, -3.956346) " points="72.9081669 -3.43158321e-18 80.0598697 -3.43158321e-18 80.0598697 7.91269215 72.9081669 7.91269215"></polygon>
                    </g>
                </g>
            </g>
        </g>
    </g>
</svg>