<?xml version="1.0" encoding="UTF-8"?>
<svg width="1440px" height="669px" viewBox="0 0 1440 669" version="1.1" xmlns="http://www.w3.org/2000/svg" xmlns:xlink="http://www.w3.org/1999/xlink">
    <!-- Generator: Sketch 61.2 (89653) - https://sketch.com -->
    <title>Page-Header-Bg</title>
    <desc>Created with Sketch.</desc>
    <defs>
        <rect id="path-1" x="0" y="0" width="1440" height="669"></rect>
    </defs>
    <g id="Master" stroke="none" stroke-width="1" fill="none" fill-rule="evenodd">
        <g id="XL_How-We-Help" transform="translate(0.000000, -96.000000)">
            <g id="Header" transform="translate(0.000000, 96.000000)">
                <g id="Page-Header-Bg">
                    <mask id="mask-2" fill="white">
                        <use xlink:href="#path-1"></use>
                    </mask>
                    <g id="Bounds"></g>
                    <g id="Decor-Bolt" mask="url(#mask-2)" fill="#222222" fill-rule="nonzero">
                        <g transform="translate(1035.000000, -326.000000)">
                            <polygon id="Fill-21" points="5.68434189e-14 323.880897 144 646 279.5 995 287.612643 994.826082 287.612643 265.678547"></polygon>
                            <polygon id="Fill-24" points="276.381977 -3.97903932e-13 276.381977 531.647613 420.669842 502.409005 537.848016 -3.97903932e-13"></polygon>
                        </g>
                    </g>
                    <g id="Decor-Bolt" mask="url(#mask-2)" fill="#222222" fill-rule="nonzero">
                        <g transform="translate(80.000000, 193.500000) rotate(33.000000) translate(-80.000000, -193.500000) translate(-189.000000, -304.000000)">
                            <polygon id="Fill-21" points="5.68434189e-14 323.880897 144 646 279.5 995 287.612643 994.826082 287.612643 265.678547"></polygon>
                            <polygon id="Fill-24" points="276.381977 -3.97903932e-13 276.381977 531.647613 420.669842 502.409005 537.848016 -3.97903932e-13"></polygon>
                        </g>
                    </g>
                </g>
            </g>
        </g>
    </g>
</svg>