<?xml version="1.0" encoding="UTF-8"?>
<svg width="1440px" height="1292px" viewBox="0 0 1440 1292" version="1.1" xmlns="http://www.w3.org/2000/svg" xmlns:xlink="http://www.w3.org/1999/xlink">
    <!-- Generator: Sketch 61.2 (89653) - https://sketch.com -->
    <title>Pattern</title>
    <desc>Created with Sketch.</desc>
    <g id="Master" stroke="none" stroke-width="1" fill="none" fill-rule="evenodd">
        <g id="XL_Home" transform="translate(0.000000, -4654.000000)" fill="#FFD02F" fill-rule="nonzero">
            <g id="Contact" transform="translate(0.000000, 4654.000000)">
                <g id="Pattern" transform="translate(-184.000000, -306.000000)">
                    <polygon id="Fill-20" points="651.99193 1282.20042 778.447727 1872.4304 920.720915 1872.378 920.720915 1227.48083"></polygon>
                    <polygon id="Fill-20" points="90 1128.71958 216.455797 1718.94956 358.728985 1718.89716 358.728985 1074"></polygon>
                    <g id="Group" transform="translate(1199.618023, 680.000000)">
                        <polygon id="Fill-21" points="5.68434189e-14 323.880897 146.317073 994.878278 287.612643 994.826082 287.612643 265.678547"></polygon>
                        <polygon id="Fill-24" points="276.381977 -3.97903932e-13 276.381977 531.647613 420.669842 502.409005 537.848016 -3.97903932e-13"></polygon>
                    </g>
                    <polygon id="Fill-22" points="663.612643 32.0523201 376 32 522.44982 704.548756 663.612643 675.95582"></polygon>
                    <polygon id="Fill-23" points="1111.89187 620.298588 971 32 1246.99193 32 1246.99193 592.917035"></polygon>
                    <polygon id="Fill-24" points="1554 -3.97903932e-13 1554 531.647613 1698.28786 502.409005 1815.46604 -3.97903932e-13"></polygon>
                    <polygon id="Fill-25" points="938 409.052401 938 1053.94956 1206.72898 999.229979 1064.70273 409"></polygon>
                    <polygon id="Fill-22" points="287.612643 244.05232 0 244 146.44982 916.548756 287.612643 887.95582"></polygon>
                </g>
            </g>
        </g>
    </g>
</svg>