<?xml version="1.0" encoding="UTF-8"?>
<svg width="112px" height="112px" viewBox="0 0 112 112" version="1.1" xmlns="http://www.w3.org/2000/svg" xmlns:xlink="http://www.w3.org/1999/xlink">
    <!-- Generator: Sketch 61.2 (89653) - https://sketch.com -->
    <title>Buzz-Icon</title>
    <desc>Created with Sketch.</desc>
    <g id="Layout" stroke="none" stroke-width="1" fill="none" fill-rule="evenodd">
        <g id="A4" transform="translate(-576.000000, -93.000000)">
            <g id="Buzz-Icon" transform="translate(576.000000, 93.000000)">
                <circle id="Oval" fill="#FF0333" cx="56" cy="56" r="56"></circle>
                <path d="M67.8032089,27.995738 L68.9812172,28.1336627 L70.0510024,28.1942331 L71.6591372,28.483137 L72.9453684,28.6984162 L74.0206848,29.075864 L74.9877781,29.3759573 L76.1754658,30.0684176 L77.5837478,31.1532449 L78.5563723,31.7702157 L78.9920299,32.2380722 L79.3194645,32.6285743 L79.7634189,33.571747 L80.4238192,34.6696287 L80.5417217,35.3015186 L80.5514012,35.8560542 L80.7761439,36.4860793 L81.0064177,37.4329818 L80.9203192,38.6231371 L80.8217756,39.1003182 L80.8314551,39.6548537 L80.7329115,40.1320348 L80.5289105,40.6903001 L80.5372071,41.1656163 L80.3415028,42.1991978 L80.244342,42.7555982 L79.8349571,43.7929095 L79.950094,44.2663608 L79.746093,44.8246261 L79.6434011,45.0641491 L79.5462403,45.6205495 L79.3408565,46.0995955 L79.1368555,46.6578608 L78.8246314,47.1387717 L78.4097154,47.8592055 L77.6770443,48.7436728 L76.9429904,49.5489208 L76.1048618,50.5144723 L74.7339148,51.5685678 L74.2052446,51.8947697 L73.6793401,52.3794104 L73.15067,52.7056124 L72.4083194,53.0355441 L71.1359159,53.6124585 L69.8607469,54.0309342 L68.9047158,54.3645957 L68.9130125,54.8399119 L69.9869461,55.1381403 L71.1704854,55.5929425 L72.1375787,55.8930358 L73.4307239,56.5044119 L74.0814448,57.047758 L74.7307829,57.5118847 L75.3856522,58.2928889 L75.8226926,58.8399648 L76.3721044,59.7020533 L76.5996127,60.4905171 L76.9284301,60.9602386 L77.1600867,61.9863604 L77.6054238,63.0087525 L77.5165597,64.0404691 L77.744068,64.8289329 L77.6496727,65.5437721 L77.6676489,66.5736238 L77.5704881,67.1300242 L77.3775493,68.3220444 L77.0777702,69.5159295 L76.7752256,70.5513759 L76.6780648,71.1077764 L76.376903,72.2224421 L76.1715192,72.7014881 L75.9675182,73.2597534 L75.7621344,73.7387994 L75.5581333,74.2970647 L73.8929384,76.8619227 L72.9479695,77.8293392 L72.3221386,78.7119416 L71.7948513,79.1173629 L71.0552663,79.6057334 L70.6348192,80.0092898 L69.7870111,80.4203059 L69.150118,80.6691534 L68.6228307,81.0745747 L67.8804801,81.4045064 L67.35181,81.7307084 L66.8217571,81.977691 L66.0780237,82.2284034 L65.2288329,82.5602001 L64.0577385,82.8183721 L63.2071649,83.0709494 L62.5675063,83.1613582 L61.6073268,83.2573617 L60.222552,83.5192635 L59.5801278,83.4512336 L57.9816724,83.7168652 L56.377686,83.6656194 L55.6284215,83.5994544 L54.8819226,83.691728 L51.9986188,83.8212998 L50.6083128,83.7663242 L49.7522081,83.702024 L48.2564447,83.7281327 L47.4031055,83.8222713 L47.0825848,83.827866 L45.4813639,83.9350589 L43.7691545,83.8064586 L42.9144325,83.8213779 L41.2063714,83.9304357 L36.8259214,84.0068967 L36.1834971,83.9388668 L35.3287752,83.953786 L33.7247887,83.9025402 L32.7618438,83.840105 L32.0056654,83.3778431 L32.1014434,82.7422233 L32.3012961,81.9462999 L32.2805544,80.7580095 L32.5900129,80.1186599 L32.7912484,79.4019558 L32.98557,78.289155 L33.1826571,77.3347929 L33.2798179,76.7783924 L33.6892027,75.7410811 L33.8835243,74.6282803 L33.9710057,73.5173443 L34.1763895,73.0382983 L34.2735503,72.4818979 L34.4775513,71.9236326 L34.5733293,71.2880128 L34.8827878,70.6486632 L34.9813314,70.1714821 L35.1742702,68.9794619 L35.3658262,67.7082223 L35.7793594,66.9085691 L35.6586914,66.1182404 L33.1317201,65.7840236 L31.0059322,65.3107753 L30.9977049,62.7572348 L31.3002495,61.7217884 L31.4959539,60.6882069 L31.5931146,60.1318064 L31.897042,59.1755794 L31.8887454,58.7002632 L31.9900545,58.3815209 L32.1899072,57.5855975 L32.5979092,56.4690668 L32.6853906,55.3581309 L32.8921572,54.9583042 L33.301542,53.9209929 L33.39732,53.2853731 L33.8053221,52.1688425 L33.9996437,51.0560416 L33.9885814,50.4222867 L34.0857422,49.8658863 L34.2897433,49.307621 L34.597819,48.589052 L34.6922142,47.8742129 L34.7824611,46.9217156 L34.9864622,46.3634503 L35.0850057,45.8862692 L35.3944642,45.2469196 L35.4888595,44.5320805 L35.587403,44.0548994 L35.5777236,43.5003639 L35.7831074,43.0213179 L35.881651,42.5441368 L36.0745898,41.3521166 L36.4825918,40.2355859 L36.6520234,37.6968366 L36.9518024,36.5029515 L37.254347,35.4675051 L37.8622018,33.555051 L38.1647464,32.5196046 L38.1536842,31.8858497 L38.250845,31.3294493 L38.3369435,30.1392939 L38.538179,29.4225899 L38.8517858,29.0208984 L39.8022858,28.3703594 L41.2966664,28.2650314 L46.1920041,28.2144759 L46.8344283,28.2825059 L51.3470458,28.1244944 L53.5906909,28.0853314 L58.8286284,28.1523898 L63.1008554,27.9985743 L64.5980016,28.0516851 L67.8032089,27.995738 Z M58.4611748,38 L46.7684241,38 C46.0401351,38 45.2154766,38.6631607 44.9355635,39.4734935 L44.9355635,39.4734935 L40.0939471,60.8172149 C39.814034,61.6275476 40.181121,62.2907083 40.90941,62.2907083 L40.90941,62.2907083 L45.9382823,62.2907083 C46.6665713,62.2907083 47.0369688,62.9551989 46.7611018,63.7677481 L46.7611018,63.7677481 L41.8319094,78.2890175 C41.5564102,79.1015667 41.7344364,79.2380997 42.2280545,78.5926706 L42.2280545,78.5926706 L59.8680967,55.5212382 C60.3617148,54.875809 59.3630551,54.3478515 58.6351339,54.3478515 L58.6351339,54.3478515 L52.8706372,54.3478515 C52.1423482,54.3478515 51.8863436,53.7578335 52.3019833,53.0370452 L52.3019833,53.0370452 L59.0298287,39.3108063 C59.4454684,38.590018 59.189096,38 58.4611748,38 L58.4611748,38 Z" id="Combined-Shape" fill="#FFFFFF" fill-rule="nonzero"></path>
            </g>
        </g>
    </g>
</svg>