<?xml version="1.0" encoding="UTF-8"?>
<svg width="112px" height="112px" viewBox="0 0 112 112" version="1.1" xmlns="http://www.w3.org/2000/svg" xmlns:xlink="http://www.w3.org/1999/xlink">
    <!-- Generator: Sketch 61.2 (89653) - https://sketch.com -->
    <title>Dunelm-Logo</title>
    <desc>Created with Sketch.</desc>
    <g id="Page-1" stroke="none" stroke-width="1" fill="none" fill-rule="evenodd">
        <g id="Dunelm-Logo" fill-rule="nonzero">
            <rect id="Avatar" fill="#0FAD4B" x="0" y="0" width="112" height="112" rx="56"></rect>
            <path d="M72.2401573,64.0830379 C71.0465218,66.3014923 69.5055902,68.0676593 67.6391814,69.3599668 C65.7510357,70.6738466 63.6025411,71.5999935 61.2586616,72.1599798 C58.8713906,72.7200475 56.4406461,73 54.0533752,73 L47,73 L47,38 L54.0533752,38 C56.4406461,38 58.8713906,38.2368891 61.2803164,38.7326467 C63.6241958,39.206425 65.7727725,40.0895899 67.6391814,41.3818973 C69.5055902,42.6527138 71.0465218,44.4187995 72.2184205,46.6803986 C73.412056,48.9419162 73.9980464,51.935755 73.9980464,55.5757882 C74.0390592,59.0219143 73.4337108,61.886563 72.2401573,64.083445 M83.2762271,43.2272916 C81.4604057,39.8084912 79.082558,37.0055051 76.1859042,34.8820574 C73.2892503,32.7797978 70.0034511,31.2508962 66.4150285,30.3590771 C62.848257,29.4671777 59.2598344,29 55.7578524,29 L36.8647313,29 C36.3892271,29 36,29.3820247 36,29.8494433 L36,82.1505567 C36,82.6176542 36.3889003,83 36.8647313,83 L55.7362831,83 C59.2598344,83 62.8698262,82.4686967 66.4366795,81.4498303 C70.0250203,80.4092944 73.3108196,78.7954806 76.1859042,76.6083087 C79.082558,74.4211368 81.4604057,71.5968824 83.2762271,68.1993502 C85.0920485,64.7805498 86,60.6822911 86,55.989406 C86,50.9567116 85.0920485,46.6673602 83.2762271,43.2272916" id="path178" fill="#FFFFFF"></path>
        </g>
    </g>
</svg>