<?xml version="1.0" encoding="UTF-8"?>
<svg width="72px" height="72px" viewBox="0 0 72 72" version="1.1" xmlns="http://www.w3.org/2000/svg" xmlns:xlink="http://www.w3.org/1999/xlink">
    <!-- Generator: Sketch 63.1 (92452) - https://sketch.com -->
    <title>event-icon-1</title>
    <desc>Created with Sketch.</desc>
    <g id="Master" stroke="none" stroke-width="1" fill="none" fill-rule="evenodd">
        <g id="XL_Service-Page" transform="translate(-270.000000, -3098.000000)" fill-rule="nonzero">
            <g id="Benefits" transform="translate(120.000000, 3098.000000)">
                <g id="Col">
                    <g id="event-icon-1" transform="translate(150.000000, 0.000000)">
                        <circle id="Back" fill="#222222" cx="36" cy="36" r="36"></circle>
                        <g id="Group" transform="translate(16.000000, 16.000000)" fill="#F9315D">
                            <path d="M20.2272727,0.303030303 C9.34909091,0.303030303 0.53030303,9.12181818 0.53030303,20 C0.53030303,30.8781818 9.34909091,39.6969697 20.2272727,39.6969697 C31.1054545,39.6969697 39.9242424,30.8781818 39.9242424,20 C39.9242424,9.12181818 31.1054545,0.303030303 20.2272727,0.303030303 Z M20.0872727,18.1424242 C20.1345455,18.1393939 20.1793939,18.1284848 20.2272727,18.1284848 C20.4290909,18.1284848 20.6206061,18.1666667 20.8054545,18.2206061 L26.7515152,12.2745455 C27.1363636,11.889697 27.7593939,11.889697 28.1442424,12.2745455 C28.5290909,12.6587879 28.5290909,13.2830303 28.1442424,13.6672727 L22.1975758,19.6139394 C22.2521212,19.7987879 22.289697,19.989697 22.289697,20.1915152 C22.289697,21.3315152 21.3666667,22.2545455 20.2272727,22.2545455 C19.0878788,22.2545455 18.1648485,21.3315152 18.1648485,20.1915152 C18.1648485,19.8484848 18.2563636,19.530303 18.4048485,19.2454545 L14.7909091,15.6315152 C14.4060606,15.2472727 14.4060606,14.6230303 14.7909091,14.2387879 C15.1757576,13.8539394 15.7987879,13.8539394 16.1836364,14.2387879 L20.0872727,18.1424242 Z M20.2272727,35.6169697 C11.7212121,35.6169697 4.80181818,28.6969697 4.80181818,20.1915152 C4.80181818,14.7054545 7.77151515,9.61212121 12.4612121,6.86727273 L9.94606061,5.97272727 L10.5115152,4.38363636 L15.8448485,6.28121212 L13.9472727,11.6145455 L12.3587879,11.050303 L13.1818182,8.73575758 C9.52606061,10.9945455 7.12787879,14.9084848 6.80848485,19.2066667 L7.84909091,19.2066667 C8.39333333,19.2066667 8.83393939,19.6472727 8.83393939,20.1915152 C8.83393939,20.7351515 8.39333333,21.1763636 7.84909091,21.1763636 L6.82121212,21.1763636 C7.30545455,27.809697 12.609697,33.1163636 19.2424242,33.6 L19.2424242,32.569697 C19.2424242,32.0260606 19.6836364,31.5848485 20.2272727,31.5848485 C20.7709091,31.5848485 21.2121212,32.0260606 21.2121212,32.569697 L21.2121212,33.5993939 C27.8442424,33.1157576 33.1484848,27.8090909 33.6327273,21.1757576 L32.6054545,21.1757576 C32.0618182,21.1757576 31.6206061,20.7345455 31.6206061,20.1909091 C31.6206061,19.6466667 32.0618182,19.2060606 32.6054545,19.2060606 L33.6369697,19.2060606 C33.4163636,16.1721212 32.190303,13.309697 30.1115152,11.06 C29.7424242,10.6606061 29.7666667,10.0375758 30.1660606,9.66848485 C30.5660606,9.3 31.1890909,9.32424242 31.5581818,9.72363636 C34.1987879,12.58 35.6533333,16.2981818 35.6533333,20.1915152 C35.6527273,28.6969697 28.7333333,35.6169697 20.2272727,35.6169697 Z" id="Shape"></path>
                        </g>
                    </g>
                </g>
            </g>
        </g>
    </g>
</svg>