<?xml version="1.0" encoding="UTF-8"?>
<svg width="72px" height="72px" viewBox="0 0 72 72" version="1.1" xmlns="http://www.w3.org/2000/svg" xmlns:xlink="http://www.w3.org/1999/xlink">
    <!-- Generator: Sketch 63.1 (92452) - https://sketch.com -->
    <title>event-icon-2</title>
    <desc>Created with Sketch.</desc>
    <g id="Master" stroke="none" stroke-width="1" fill="none" fill-rule="evenodd">
        <g id="XL_Service-Page" transform="translate(-689.000000, -3098.000000)" fill-rule="nonzero">
            <g id="Benefits" transform="translate(120.000000, 3098.000000)">
                <g id="Col" transform="translate(415.000000, 0.000000)">
                    <g id="event-icon-2" transform="translate(154.000000, 0.000000)">
                        <circle id="Oval" fill="#222222" cx="36" cy="36" r="36"></circle>
                        <g id="noun_Rocket_125601" transform="translate(16.000000, 18.000000)" fill="#304FFE">
                            <path d="M39.8421053,0.368421053 C39.3684211,8.78947368 37.4736842,14.7368421 29.0526316,21.5789474 C29.0526316,25.1578947 27.6315789,28.7368421 24.7368421,31.2631579 L19.9473684,25.8947368 C18.9473684,26.8421053 17.6315789,27.3157895 16.3684211,27.3684211 C14.6842105,27.4210526 13.0526316,26.7894737 11.8421053,25.4736842 C9.73684211,23.1052632 9.94736842,19.4736842 12.2631579,17.3684211 L7.47368421,12 C10.3684211,9.42105263 14.0526316,8.36842105 17.6315789,8.78947368 C25.3157895,1.15789474 31.4210526,-0.105263158 39.8421053,0.368421053 Z M31.1052632,13.3157895 C32.6842105,11.8947368 32.7894737,9.52631579 31.4210526,7.94736842 C30.6315789,7.10526316 29.5789474,6.63157895 28.4210526,6.68421053 C27.5263158,6.73684211 26.6842105,7.05263158 26.0526316,7.63157895 C24.4736842,9.05263158 24.3684211,11.4210526 25.7368421,13 C26.5263158,13.8421053 27.5789474,14.3157895 28.7368421,14.2631579 C29.5789474,14.2105263 30.4210526,13.8947368 31.1052632,13.3157895 Z" id="Shape"></path>
                            <path d="M0.315789474,35.4736842 L0.578947368,34.6315789 C0.631578947,34.4210526 2.10526316,29.4210526 4,27.4736842 C5.05263158,26.4210526 6.31578947,25.8421053 7.47368421,25.8421053 C8.21052632,25.8421053 8.78947368,26.0526316 9.26315789,26.5263158 C10.4736842,27.7368421 10.0526316,30.0526316 8.31578947,31.7894737 C6.26315789,33.8421053 1.36842105,35.1578947 1.15789474,35.2631579 L0.315789474,35.4736842 Z" id="Path"></path>
                        </g>
                    </g>
                </g>
            </g>
        </g>
    </g>
</svg>