<?xml version="1.0" encoding="UTF-8"?>
<svg width="112px" height="112px" viewBox="0 0 112 112" version="1.1" xmlns="http://www.w3.org/2000/svg" xmlns:xlink="http://www.w3.org/1999/xlink">
    <!-- Generator: Sketch 61.2 (89653) - https://sketch.com -->
    <title>JP-Icon</title>
    <desc>Created with Sketch.</desc>
    <g id="Page-1" stroke="none" stroke-width="1" fill="none" fill-rule="evenodd">
        <g id="JP-Icon">
            <rect id="Avatar" fill="#FFC400" fill-rule="nonzero" x="0" y="0" width="112" height="112" rx="56"></rect>
            <path d="M51.2,83.625 C46.6191304,83.625 42.7721739,82.8097059 39.6730435,81.1791176 C36.5704348,79.5518235 34.0104348,77.6017059 32,75.3452353 L40.1321739,66.825 C41.8104348,68.561 43.5008696,69.9148824 45.2034783,70.885 C46.9130435,71.8600588 48.7947826,72.3459412 50.8678261,72.3459412 C53.32,72.3459412 55.2504348,71.6245294 56.6417391,70.1767647 C58.0330435,68.7273529 58.733913,66.405 58.733913,63.1998235 L58.733913,27.625 L72,27.625 L72,63.7499412 C72,67.0605294 71.5234783,69.9313529 70.573913,72.3475882 C69.6173913,74.7687647 68.2521739,76.8177059 66.4626087,78.4944118 C64.6747826,80.1826471 62.48,81.4541765 59.88,82.3238235 C57.2886957,83.1901765 54.4017391,83.625 51.2017391,83.625" id="Path" fill="#000000"></path>
        </g>
    </g>
</svg>