<?xml version="1.0" encoding="UTF-8"?>
<svg width="120px" height="18px" viewBox="0 0 120 18" version="1.1" xmlns="http://www.w3.org/2000/svg" xmlns:xlink="http://www.w3.org/1999/xlink">
    <!-- Generator: Sketch 61.2 (89653) - https://sketch.com -->
    <title>JP-logo</title>
    <desc>Created with Sketch.</desc>
    <g id="Page-1" stroke="none" stroke-width="1" fill="none" fill-rule="evenodd" fill-opacity="0.8">
        <g id="JP-Screen-2_Mobile" transform="translate(-16.000000, -19.000000)" fill="#FFFFFF">
            <g id="Top">
                <g id="JP-logo" transform="translate(16.000000, 19.000000)">
                    <path d="M5.87006369,17.625 C4.46954306,17.625 3.29340349,17.3738603 2.34589864,16.8715809 C1.39733038,16.3703162 0.61465522,15.7696103 0,15.0745368 L2.48626973,12.45 C2.9993686,12.98475 3.51618942,13.4017941 4.03673221,13.700625 C4.55940183,14.0009779 5.13471061,14.1506471 5.76850734,14.1506471 C6.51821656,14.1506471 7.10841318,13.9284265 7.53378012,13.4824632 C7.95914705,13.0359926 8.17342564,12.320625 8.17342564,11.3333162 L8.17342564,0.375 L12.2292994,0.375 L12.2292994,11.5027721 C12.2292994,12.5225515 12.0836112,13.4068676 11.7932983,14.1511544 C11.5008585,14.8969632 11.0834672,15.5281103 10.536339,16.0445956 C9.98974245,16.5646324 9.31872611,16.9563088 8.52382166,17.2241912 C7.73157574,17.4910588 6.84893935,17.625 5.8705954,17.625" id="Path"></path>
                    <path d="M20.1694842,13.7843382 L18.5337316,17.625 L14.522293,17.625 L22.1881063,0.375 L25.8166755,0.375 L33.4814355,17.625 L29.3667749,17.625 L27.7326021,13.7843382 L26.3264657,10.4561029 L23.9513065,4.90261765 L21.5740407,10.4561029 M87.5797685,13.7843382 L85.9440158,17.625 L81.9325773,17.625 L89.5983906,0.375 L93.2269598,0.375 L100.89172,17.625 L96.7770592,17.625 L95.1428864,13.7843382 L93.73675,10.4561029 L91.3615908,4.90261765 L88.984325,10.4555956" id="Shape" fill-rule="nonzero"></path>
                    <path d="M36.6878981,0.375 L40.939979,0.375 L45.6518584,7.66921324 L50.3647924,0.375 L54.6158188,0.375 L54.6158188,17.625 L50.7222962,17.625 L50.7222962,6.36379412 L45.678223,13.7305588 L45.5754011,13.7305588 L40.5808933,6.43786765 L40.5808933,17.625 L36.6878981,17.625 L36.6878981,0.375 Z M73.8371862,9.07305882 C74.8300766,9.07305882 75.6015045,8.82293382 76.1498879,8.32217647 C76.6929985,7.82192647 76.9671902,7.20092647 76.9671902,6.46272794 L76.9671902,6.40691912 C76.9671902,5.55456618 76.6824526,4.90515441 76.1077046,4.45969853 C75.5329565,4.01677941 74.7483464,3.79506618 73.7559832,3.79506618 L70.6976909,3.79506618 L70.6976909,9.07102941 L73.835077,9.07102941 L73.8371862,9.07305882 Z M66.7435298,0.375 L74.0939773,0.375 C75.1733435,0.375 76.1372329,0.518580882 76.9851181,0.807264706 C77.832476,1.09341176 78.5527566,1.49980147 79.1438507,2.02592647 C79.7344175,2.55154412 80.188943,3.17964706 80.5053181,3.91125 C80.8216931,4.64336029 80.9798807,5.45157353 80.9798807,6.33842647 L80.9798807,6.38763971 C80.9798807,7.39219853 80.7900556,8.26991912 80.4156785,9.025875 C80.0360284,9.78183088 79.5192824,10.4160221 78.8601677,10.923375 C78.201053,11.4358015 77.425934,11.8163162 76.5453568,12.0699926 C75.6647795,12.3236691 74.7156543,12.4505074 73.7032541,12.4505074 L70.6976909,12.4505074 L70.6976909,17.625 L66.7435298,17.625 L66.7435298,0.375 Z M104.181246,0.375 L107.792141,0.375 L116.133897,10.9964338 L116.133897,0.375 L120,0.375 L120,17.625 L116.667516,17.625 L108.046295,6.65958088 L108.046295,17.625 L104.181246,17.625 L104.181246,0.375 Z" id="Shape" fill-rule="nonzero"></path>
                </g>
            </g>
        </g>
    </g>
</svg>