<?xml version="1.0" encoding="UTF-8"?>
<svg width="72px" height="72px" viewBox="0 0 72 72" version="1.1" xmlns="http://www.w3.org/2000/svg" xmlns:xlink="http://www.w3.org/1999/xlink">
    <!-- Generator: Sketch 63.1 (92452) - https://sketch.com -->
    <title>risk-icon</title>
    <desc>Created with Sketch.</desc>
    <g id="Master" stroke="none" stroke-width="1" fill="none" fill-rule="evenodd">
        <g id="XL_Service-Page" transform="translate(-1104.000000, -3184.000000)" fill-rule="nonzero">
            <g id="Benefits" transform="translate(120.000000, 3184.000000)">
                <g id="Col" transform="translate(853.000000, 0.000000)">
                    <g id="risk-icon" transform="translate(131.000000, 0.000000)">
                        <circle id="Oval" fill="#222222" cx="36" cy="36" r="36"></circle>
                        <g id="noun_bulb_707370" transform="translate(16.000000, 15.000000)" fill="#FFD900">
                            <path d="M39.7130233,22.7460465 L35.4125581,22.7460465 C35.3074419,22.7460465 35.2227907,22.8302326 35.2227907,22.9348837 L35.2227907,24.452093 C35.2227907,24.5562791 35.3074419,24.6409302 35.4125581,24.6409302 L39.7130233,24.6409302 C39.8176744,24.6409302 39.9023256,24.555814 39.9023256,24.452093 L39.9023256,22.9348837 C39.9023256,22.8306977 39.8172093,22.7460465 39.7130233,22.7460465 Z" id="Path" fill-opacity="0.5"></path>
                            <path d="M4.58790698,22.7460465 L0.286976744,22.7460465 C0.182790698,22.7460465 0.0976744186,22.8302326 0.0976744186,22.9348837 L0.0976744186,24.452093 C0.0976744186,24.5562791 0.182325581,24.6409302 0.286976744,24.6409302 L4.58790698,24.6409302 C4.69302326,24.6409302 4.77767442,24.555814 4.77767442,24.452093 L4.77767442,22.9348837 C4.77767442,22.8306977 4.69302326,22.7460465 4.58790698,22.7460465 Z" id="Path" fill-opacity="0.5"></path>
                            <path d="M35.715814,16.24 L39.4409302,14.0893023 C39.5316279,14.0367442 39.5632558,13.9204651 39.5102326,13.8302326 L38.7516279,12.5167442 C38.6995349,12.4260465 38.5837209,12.3948837 38.4925581,12.4474419 L34.7674419,14.5981395 C34.6772093,14.6506977 34.6460465,14.7665116 34.6981395,14.8572093 L35.4567442,16.1702326 C35.5097674,16.2609302 35.6260465,16.2916279 35.715814,16.24 Z" id="Path" fill-opacity="0.5"></path>
                            <path d="M32.8827907,4.56139535 L31.5697674,3.80325581 C31.4790698,3.75069767 31.3627907,3.78186047 31.3097674,3.87255814 L29.1595349,7.59767442 C29.1069767,7.68837209 29.1386047,7.80418605 29.2283721,7.85674419 L30.5418605,8.61488372 C30.6316279,8.66744186 30.747907,8.63627907 30.8009302,8.54511628 L32.952093,4.82046512 C33.0046512,4.72976744 32.9734884,4.61395349 32.8827907,4.56139535 Z" id="Path" fill-opacity="0.5"></path>
                            <path d="M19.2413953,4.68046512 L20.7586047,4.68046512 C20.8632558,4.68046512 20.9474419,4.59534884 20.9474419,4.49069767 L20.9474419,0.189302326 C20.9474419,0.0851162791 20.8627907,0 20.7586047,0 L19.2413953,0 C19.1372093,0 19.0525581,0.0851162791 19.0525581,0.189302326 L19.0525581,4.49116279 C19.0525581,4.59581395 19.1367442,4.68046512 19.2413953,4.68046512 Z" id="Path" fill-opacity="0.5"></path>
                            <path d="M9.45767442,8.61534884 L10.7711628,7.8572093 C10.8609302,7.80465116 10.8925581,7.68883721 10.84,7.59813953 L8.68976744,3.87302326 C8.63674419,3.78232558 8.52093023,3.75162791 8.43023256,3.80372093 L7.1172093,4.56186047 C7.02651163,4.6144186 6.99581395,4.73023256 7.04790698,4.82093023 L9.19860465,8.54604651 C9.25116279,8.63627907 9.36744186,8.66744186 9.45767442,8.61534884 Z" id="Path" fill-opacity="0.5"></path>
                            <path d="M5.23209302,14.5981395 L1.50697674,12.4474419 C1.41581395,12.3948837 1.3,12.4260465 1.24790698,12.5167442 L0.489767442,13.8302326 C0.436744186,13.9209302 0.468372093,14.0367442 0.559069767,14.0893023 L4.28418605,16.24 C4.37395349,16.292093 4.49023256,16.2609302 4.5427907,16.1702326 L5.30139535,14.8572093 C5.35395349,14.7665116 5.3227907,14.6502326 5.23209302,14.5981395 Z" id="Path" fill-opacity="0.5"></path>
                            <path d="M20,7.26837209 C13.195814,7.26837209 7.67953488,12.7846512 7.67953488,19.5888372 C7.67953488,26.1665116 14.0386047,29.7693023 14.4623256,33.4265116 C14.4865116,33.6344186 14.6539535,33.8051163 14.8637209,33.8046521 L25.1362791,33.8046521 C25.3460465,33.8046521 25.5134884,33.6348837 25.5376744,33.4265116 C25.9609302,29.7693023 32.32,26.1665116 32.32,19.5888372 C32.32,12.784186 26.804186,7.26837209 20,7.26837209 Z" id="Path"></path>
                            <path d="M25.1362791,35.2260465 L14.8637209,35.2260465 C14.6539535,35.2260465 14.484186,35.395814 14.484186,35.6051163 L14.484186,37.2162791 C14.484186,37.4255814 14.6539535,37.5948837 14.8637209,37.5948837 L25.1362791,37.5948837 C25.3460465,37.5948837 25.515814,37.4255814 25.515814,37.2162791 L25.515814,35.6051163 C25.515814,35.3962791 25.3460465,35.2260465 25.1362791,35.2260465 Z" id="Path" fill-opacity="0.5"></path>
                            <path d="M14.8637209,39.0167442 C14.6539535,39.0167442 14.6083721,39.1325581 14.7609302,39.2753488 L17.2534884,41.6018605 C17.4069767,41.7446512 17.7009302,41.8604651 17.9102326,41.8604651 L22.0897674,41.8604651 C22.2990698,41.8604651 22.5930233,41.7446512 22.7460465,41.6013953 L25.2386047,39.2748837 C25.3906977,39.132093 25.3451163,39.0162791 25.1353488,39.0162791 L14.8637209,39.0162791 L14.8637209,39.0167442 Z" id="Path" fill-opacity="0.5"></path>
                        </g>
                    </g>
                </g>
            </g>
        </g>
    </g>
</svg>