<?xml version="1.0" encoding="UTF-8"?>
<svg width="72px" height="72px" viewBox="0 0 72 72" version="1.1" xmlns="http://www.w3.org/2000/svg" xmlns:xlink="http://www.w3.org/1999/xlink">
    <!-- Generator: Sketch 63.1 (92452) - https://sketch.com -->
    <title>support-icon</title>
    <desc>Created with Sketch.</desc>
    <g id="Master" stroke="none" stroke-width="1" fill="none" fill-rule="evenodd">
        <g id="XL_Service-Page" transform="translate(-475.000000, -4643.000000)" fill-rule="nonzero">
            <g id="support-icon" transform="translate(475.000000, 4643.000000)">
                <circle id="Back" fill="#222222" cx="36" cy="36" r="36"></circle>
                <g id="noun_support_3140807" transform="translate(16.000000, 16.000000)" fill="#FFD900">
                    <path d="M36.4847692,8.69846154 C36.4693846,8.672 36.4669231,8.64138462 36.4490769,8.61553846 C36.4233846,8.57846154 36.3838462,8.55969231 36.3555385,8.52569231 C32.6234707,3.18284951 26.5170771,-0.00034401436 19.9998462,-0.00034401436 C13.4826152,-0.00034401436 7.3762216,3.18284951 3.64415385,8.52569231 C3.61584615,8.55953846 3.57661538,8.57815385 3.55092308,8.61492308 C3.53307692,8.64076923 3.53123077,8.67138462 3.51523077,8.69784615 C-2.20515686,17.0243554 -0.818113586,28.3094306 6.74836725,35.0028571 C14.3148481,41.6962836 25.6848442,41.6962836 33.2513251,35.0028571 C40.8178059,28.3094306 42.2048492,17.0243554 36.4844615,8.69784615 L36.4847692,8.69846154 Z M20,3.07692308 C25.0119603,3.07730079 29.764885,5.30361382 32.9735385,9.15384615 L29.1538462,11.8018462 C26.8292997,9.18782341 23.4980896,7.69230509 20,7.69230509 C16.5019104,7.69230509 13.1707003,9.18782341 10.8461538,11.8018462 L7.02646154,9.15384615 C10.235115,5.30361382 14.9880397,3.07730079 20,3.07692308 L20,3.07692308 Z M20,29.2307692 C14.9019869,29.2307692 10.7692308,25.0980131 10.7692308,20 C10.7692308,14.9019869 14.9019869,10.7692308 20,10.7692308 C25.0980131,10.7692308 29.2307692,14.9019869 29.2307692,20 C29.2251732,25.0956933 25.0956933,29.2251732 20,29.2307692 L20,29.2307692 Z M3.0769228,20 C3.07639062,17.0843744 3.83456601,14.2187895 5.27692308,11.6849231 L9.08815385,14.3275385 C7.2233579,17.8959934 7.226463,22.1519408 9.09646399,25.7176708 C10.966465,29.2834009 14.4657451,31.7058245 18.4615385,32.2007692 L18.4615385,36.8450769 C9.75443136,36.0420859 3.08912969,28.7440471 3.0769228,20 Z M21.5384615,36.8450769 L21.5384615,32.2007692 C25.5341434,31.7056459 29.0332485,29.2831508 30.903112,25.7174488 C32.7729756,22.1517467 32.7760091,17.8959026 30.9112308,14.3275385 L34.7230769,11.6849231 C37.5578729,16.6803352 37.6598896,22.7739648 34.9938972,27.8614685 C32.3279047,32.9489723 27.2593045,36.3330559 21.5384615,36.8450769 Z" id="Shape"></path>
                </g>
            </g>
        </g>
    </g>
</svg>