<?xml version="1.0" encoding="UTF-8"?>
<svg width="72px" height="72px" viewBox="0 0 72 72" version="1.1" xmlns="http://www.w3.org/2000/svg" xmlns:xlink="http://www.w3.org/1999/xlink">
    <!-- Generator: Sketch 63.1 (92452) - https://sketch.com -->
    <title>time-money-icon</title>
    <desc>Created with Sketch.</desc>
    <g id="Master" stroke="none" stroke-width="1" fill="none" fill-rule="evenodd">
        <g id="XL_Service-Page" transform="translate(-270.000000, -3184.000000)" fill-rule="nonzero">
            <g id="Benefits" transform="translate(120.000000, 3184.000000)">
                <g id="Col">
                    <g id="time-money-icon" transform="translate(150.000000, 0.000000)">
                        <circle id="Back" fill="#222222" cx="36" cy="36" r="36"></circle>
                        <g id="Piggy" transform="translate(36.000000, 36.000000) scale(-1, 1) translate(-36.000000, -36.000000) translate(16.000000, 15.000000)">
                            <path d="M21.1111111,6.57777778 C19.2888889,6.57777778 17.8222222,5.11111111 17.8222222,3.28888889 C17.8222222,1.46666667 19.2888889,-1.11022302e-13 21.1111111,-1.11022302e-13 C22.9333333,-1.11022302e-13 24.4444444,1.42222222 24.4444444,3.24444444 C24.4444444,5.06666667 22.9333333,6.57777778 21.1111111,6.57777778 Z" id="Shape" fill-opacity="0.5" fill="#F9315D"></path>
                            <path d="M7.6,9.42222222 C7.82222222,9.24444444 8.13333333,9.28888889 8.4,9.42222222 C8.48888889,9.46666667 10.4888889,10.7111111 11.6444444,12.5777778 C14.3555556,10.7555556 17.6444444,9.82222222 21.1555556,9.82222222 C25.5555556,9.82222222 29.9555556,11.3777778 33.2444444,14.0444444 C36.3555556,16.5777778 38.2666667,19.9555556 38.7111111,23.7333333 C39.4666667,23.8666667 39.8222222,24.4444444 39.8222222,25.5111111 C39.8222222,26.5777778 39.4666667,27.1555556 38.7111111,27.2888889 C37.8666667,33.1111111 33.3333333,36.0444444 31.5555556,36.8444444 L31.5555556,36.8444444 L31.5555556,41.0666667 C31.5555556,41.5111111 31.2,42 30.7555556,42 L30.7555556,42 L26,42 C25.7777778,42 25.5555556,41.8222222 25.4222222,41.6888889 C25.2888889,41.5111111 25.2,41.2444444 25.2,41.0222222 L25.2,41.0222222 L25.2444444,38.7555556 C23.8222222,39.0222222 22.4444444,39.1555556 21.1111111,39.1555556 C19.8222222,39.1555556 18.6666667,39.0222222 17.3333333,38.8 L17.3333333,38.8 L17.3333333,41.0666667 C17.3333333,41.5111111 17.0666667,42 16.6222222,42 L16.6222222,42 L11.8666667,42 C11.4222222,42 11.1111111,41.5111111 11.1111111,41.0666667 L11.1111111,41.0666667 L11.1111111,36.8888889 C9.77777778,36.2222222 5.55555556,34 3.95555556,30 L3.95555556,30 L0.977777778,30 C0.533333333,30 0,29.6 0,29.1555556 L0,29.1555556 L0,22 C0,21.5555556 0.533333333,21.1111111 0.977777778,21.1111111 L0.977777778,21.1111111 L4.26666667,21.1111111 C5.2,18.8888889 6.62222222,16.8444444 7.15555556,16.2222222 L7.15555556,16.2222222 L7.2,10.1333333 C7.2,9.82222222 7.33333333,9.55555556 7.6,9.42222222 Z M10.4,18.3111111 C9.68888889,18.3111111 9.06666667,18.9333333 9.06666667,19.6444444 C9.06666667,20.3555556 9.64444444,20.9777778 10.4,20.9777778 C11.1555556,20.9777778 11.7333333,20.3555556 11.7333333,19.6444444 C11.7333333,18.9333333 11.1555556,18.3111111 10.4,18.3111111 Z" id="Shape" fill="#F9315D"></path>
                            <path d="M17.5555556,14.4888889 C17.2,14.4888889 16.8888889,14.2666667 16.8,13.9111111 C16.6666667,13.4666667 16.8888889,13.0222222 17.3333333,12.8888889 C17.4222222,12.8444444 19.0666667,12.3555556 21.1555556,12.4 C23.2,12.4444444 24.8,12.8 24.8888889,12.8 C25.3333333,12.8888889 25.6,13.3333333 25.5111111,13.7777778 C25.4222222,14.2222222 24.9777778,14.4888889 24.5333333,14.4 C24.5333333,14.4 22.9777778,14.0444444 21.1111111,14 C19.2888889,13.9555556 17.8222222,14.4444444 17.8222222,14.4444444 C17.7333333,14.4444444 17.6444444,14.4888889 17.5555556,14.4888889 Z" id="Path" fill="#000000"></path>
                        </g>
                    </g>
                </g>
            </g>
        </g>
    </g>
</svg>