<?xml version="1.0" encoding="UTF-8"?>
<svg width="72px" height="72px" viewBox="0 0 72 72" version="1.1" xmlns="http://www.w3.org/2000/svg" xmlns:xlink="http://www.w3.org/1999/xlink">
    <!-- Generator: Sketch 63.1 (92452) - https://sketch.com -->
    <title>training-icon</title>
    <desc>Created with Sketch.</desc>
    <g id="Master" stroke="none" stroke-width="1" fill="none" fill-rule="evenodd">
        <g id="XL_Service-Page" transform="translate(-362.000000, -4643.000000)" fill-rule="nonzero">
            <g id="training-icon" transform="translate(362.000000, 4643.000000)">
                <circle id="Back" fill="#222222" cx="36" cy="36" r="36"></circle>
                <g id="noun_Megaphone_147651" transform="translate(16.000000, 20.000000)" fill="#F9315D">
                    <path d="M39.7222222,23.6666667 L33.6111111,0.555555556 C33.5,0.111111111 33,-0.0555555556 32.6111111,0.166666667 L0.611111111,19.2777778 C0.333333333,19.4444444 0.222222222,19.7222222 0.333333333,20 L2.11111111,27.2222222 C2.16666667,27.5555556 2.5,27.7777778 2.83333333,27.7222222 L9.44444444,27.1111111 C9.72222222,27.1111111 10,27.2222222 10.1111111,27.5 C10.5,28.5555556 11.1666667,29.5 12.0555556,30.2777778 C13.3888889,31.5 15.1111111,32.1111111 16.8888889,32.1111111 C17.0555556,32.1111111 17.1666667,32.1111111 17.3333333,32.1111111 C19.2777778,32 21.0555556,31.1111111 22.3888889,29.6666667 C23.2777778,28.6666667 23.8333333,27.5 24.1111111,26.2222222 C24.1666667,25.9444444 24.4444444,25.7222222 24.7222222,25.7222222 L39.1666667,24.4444444 C39.5,24.4444444 39.7777778,24.0555556 39.7222222,23.6666667 Z M20.6666667,28.2777778 C19.7777778,29.2777778 18.5555556,29.8888889 17.1666667,30 C15.3888889,30.1111111 13.7222222,29.2777778 12.7777778,27.8888889 C12.5,27.5 12.7777778,26.8888889 13.2777778,26.8333333 L20.7777778,26.1111111 C21.2777778,26.0555556 21.6666667,26.6111111 21.4444444,27.0555556 C21.2777778,27.5 21,27.8888889 20.6666667,28.2777778 Z" id="Shape"></path>
                </g>
            </g>
        </g>
    </g>
</svg>